# xmcd
#
# Track frame offsets: 
#        150
#        13190
#        32687
#
# Disc length: 611 seconds
#
# Revision: 1
# Processed by: cddbd v1.5.2PL0 Copyright (c) Steve Scherf et al.
# Submitted via: ExactAudioCopy v0.99pb4
#
DISCID=1b026103
DTITLE=The Offspring - Why Don't You Get A Job?
DYEAR=1999
DGENRE=Rock
TTITLE0=Why Dont you get a job?
TTITLE1=Why dont you get a job? ( baka boyz remix)
TTITLE2=Walla Walla
EXTD=
EXTT0=
EXTT1=
EXTT2=
PLAYORDER=
